<svg width="25" height="25" viewBox="0 0 25 25" fill="none" xmlns="http://www.w3.org/2000/svg">
<path d="M10.6924 17.6849V17.0191L11.4574 16.8491C11.4669 16.5091 11.4716 16.1408 11.4716 15.7441C11.4716 15.3474 11.4716 15.0027 11.4716 14.7099V14.0299C11.4716 13.6427 11.4669 13.3216 11.4574 13.0666C11.4574 12.8022 11.448 12.5283 11.4291 12.2449L10.5508 12.1174V11.5649L13.5258 10.6158L13.7666 10.7716L13.7241 12.8258V14.7099C13.7241 15.0027 13.7241 15.3522 13.7241 15.7583C13.7241 16.1549 13.7288 16.528 13.7383 16.8774L14.4466 17.0191V17.6849H10.6924ZM12.5766 9.56744C12.2461 9.56744 11.9627 9.46355 11.7266 9.25578C11.4905 9.03855 11.3724 8.76939 11.3724 8.44828C11.3724 8.11772 11.4905 7.84855 11.7266 7.64077C11.9627 7.42355 12.2461 7.31494 12.5766 7.31494C12.9072 7.31494 13.1905 7.42355 13.4266 7.64077C13.6627 7.84855 13.7808 8.11772 13.7808 8.44828C13.7808 8.76939 13.6627 9.03855 13.4266 9.25578C13.1905 9.46355 12.9072 9.56744 12.5766 9.56744Z" fill="white"/>
<rect x="0.75" y="0.75" width="23.5" height="23.5" rx="11.75" stroke="url(#paint0_linear_4008_3364)" stroke-width="1.5"/>
<defs>
<linearGradient id="paint0_linear_4008_3364" x1="0" y1="0" x2="29.9153" y2="9.46537" gradientUnits="userSpaceOnUse">
<stop stop-color="#11EAF4"/>
<stop offset="1" stop-color="#FF007D"/>
</linearGradient>
</defs>
</svg>
