<svg width="36" height="36" viewBox="0 0 36 36" fill="none" xmlns="http://www.w3.org/2000/svg">
<path d="M28.0612 18.1811C28.0612 12.6245 23.5567 8.12 18.0001 8.12C12.4435 8.12 7.93896 12.6245 7.93896 18.1811C7.93896 23.2028 11.6181 27.3652 16.428 28.12V21.0894H13.8734V18.1811H16.428V15.9645C16.428 13.443 17.9301 12.0501 20.2283 12.0501C21.3287 12.0501 22.4804 12.2466 22.4804 12.2466V14.7226H21.2118C19.962 14.7226 19.5721 15.4982 19.5721 16.2947V18.1811H22.3625L21.9164 21.0894H19.5721V28.12C24.382 27.3652 28.0612 23.2028 28.0612 18.1811Z" fill="#D6E1FA"/>
<rect x="1.25" y="1.37" width="33.5" height="33.5" rx="16.75" stroke="#D6E1FA" stroke-width="1.5"/>
</svg>
