<svg width="36" height="36" viewBox="0 0 36 36" fill="none" xmlns="http://www.w3.org/2000/svg">
<path d="M13.4347 12.2504C13.4347 13.1635 12.7173 13.8809 11.8043 13.8809C10.8912 13.8809 10.1738 13.1635 10.1738 12.2504C10.1738 11.3374 10.8912 10.62 11.8043 10.62C12.7173 10.62 13.4347 11.3374 13.4347 12.2504ZM13.4347 15.1852H10.1738V25.62H13.4347V15.1852ZM18.6521 15.1852H15.3912V25.62H18.6521V20.1417C18.6521 17.0765 22.5651 16.8156 22.5651 20.1417V25.62H25.826V19.033C25.826 13.8809 20.0217 14.0765 18.6521 16.62V15.1852Z" fill="#D6E1FA"/>
<rect x="1.25" y="1.37" width="33.5" height="33.5" rx="16.75" stroke="#D6E1FA" stroke-width="1.5"/>
</svg>
