<svg width="36" height="36" viewBox="0 0 36 36" fill="none" xmlns="http://www.w3.org/2000/svg">
<path d="M10.1035 17.1348C10.1035 17.1348 18.0645 13.7818 20.8255 12.6011C21.8839 12.1289 25.4733 10.6176 25.4733 10.6176C25.4733 10.6176 27.1299 9.95649 26.9918 11.5622C26.9458 12.2233 26.5777 14.5374 26.2095 17.0404C25.6573 20.5824 25.0591 24.4549 25.0591 24.4549C25.0591 24.4549 24.9671 25.5411 24.1848 25.73C23.4025 25.9189 22.114 25.0689 21.8839 24.8799C21.6998 24.7383 18.4326 22.6131 17.2362 21.5741C16.9141 21.2908 16.5459 20.7241 17.2822 20.0629C18.9388 18.5044 20.9175 16.5682 22.114 15.3403C22.6662 14.7735 23.2184 13.4512 20.9175 15.0569C17.6504 17.371 14.4292 19.5434 14.4292 19.5434C14.4292 19.5434 13.6929 20.0156 12.3124 19.5906C10.9318 19.1656 9.32121 18.5989 9.32121 18.5989C9.32121 18.5989 8.21686 17.8905 10.1035 17.1348Z" fill="#D6E1FA"/>
<rect x="1.25" y="1.37" width="33.5" height="33.5" rx="16.75" stroke="#D6E1FA" stroke-width="1.5"/>
</svg>
