<svg width="36" height="36" viewBox="0 0 36 36" fill="none" xmlns="http://www.w3.org/2000/svg">
<path d="M14.3491 26.12C21.778 26.12 25.8425 19.9637 25.8425 14.6266C25.8425 14.4535 25.8386 14.2766 25.8309 14.1035C26.6216 13.5317 27.3039 12.8235 27.8459 12.0121C27.1095 12.3397 26.3277 12.5536 25.5271 12.6466C26.3701 12.1414 27.0012 11.3476 27.3036 10.4125C26.5106 10.8825 25.6434 11.214 24.7391 11.3928C24.1298 10.7454 23.3242 10.3168 22.4468 10.1731C21.5695 10.0295 20.6693 10.1789 19.8853 10.5982C19.1014 11.0175 18.4774 11.6834 18.1099 12.4929C17.7424 13.3024 17.6517 14.2104 17.852 15.0766C16.2463 14.996 14.6754 14.5789 13.2413 13.8522C11.8071 13.1256 10.5416 12.1057 9.52694 10.8586C9.01121 11.7478 8.85339 12.8 9.08557 13.8014C9.31775 14.8027 9.92249 15.6781 10.7769 16.2496C10.1355 16.2292 9.50807 16.0565 8.94658 15.7458V15.7958C8.946 16.7289 9.26859 17.6334 9.85951 18.3556C10.4504 19.0778 11.2732 19.573 12.188 19.7572C11.5938 19.9197 10.9702 19.9434 10.3654 19.8264C10.6235 20.6289 11.1257 21.3308 11.802 21.8341C12.4782 22.3374 13.2947 22.617 14.1375 22.634C12.7067 23.7579 10.9392 24.3676 9.11965 24.3647C8.79697 24.3642 8.47461 24.3444 8.1543 24.3054C10.0027 25.4913 12.1529 26.1211 14.3491 26.12Z" fill="#D6E1FA"/>
<rect x="1.25" y="1.37" width="33.5" height="33.5" rx="16.75" stroke="#D6E1FA" stroke-width="1.5"/>
</svg>
