<svg width="36" height="36" viewBox="0 0 36 36" fill="none" xmlns="http://www.w3.org/2000/svg">
<path d="M9.01514 27.12L10.3054 22.3223C9.26484 20.4534 8.93423 18.2725 9.37429 16.1798C9.81434 14.0872 10.9955 12.2231 12.7011 10.9297C14.4067 9.63636 16.5223 9.0004 18.6596 9.13858C20.797 9.27675 22.8127 10.1798 24.337 11.6819C25.8613 13.1841 26.7918 15.1847 26.9578 17.3165C27.1239 19.4484 26.5143 21.5685 25.241 23.2878C23.9676 25.0072 22.1159 26.2104 20.0257 26.6768C17.9354 27.1432 15.7468 26.8414 13.8614 25.8267L9.01514 27.12ZM14.0951 24.0314L14.3948 24.2089C15.7604 25.017 17.3554 25.3514 18.9313 25.16C20.5071 24.9686 21.9753 24.2622 23.107 23.1508C24.2387 22.0394 24.9703 20.5855 25.1879 19.0156C25.4055 17.4457 25.0968 15.8481 24.3099 14.4716C23.5231 13.0952 22.3022 12.0173 20.8376 11.4059C19.3731 10.7945 17.7471 10.6839 16.213 11.0914C14.6789 11.4989 13.3229 12.4016 12.3564 13.6588C11.3898 14.916 10.867 16.4571 10.8693 18.0419C10.868 19.356 11.2321 20.6447 11.9209 21.7644L12.1088 22.0738L11.3875 24.7516L14.0951 24.0314Z" fill="#D6E1FA"/>
<path fill-rule="evenodd" clip-rule="evenodd" d="M21.3693 19.2737C21.1936 19.1323 20.9879 19.0327 20.7678 18.9826C20.5477 18.9325 20.3191 18.9332 20.0994 18.9847C19.7692 19.1216 19.5558 19.6389 19.3424 19.8975C19.2974 19.9595 19.2313 20.003 19.1565 20.0198C19.0817 20.0366 19.0033 20.0256 18.936 19.9888C17.7272 19.5161 16.7139 18.6493 16.0608 17.5291C16.0051 17.4592 15.9787 17.3705 15.9872 17.2815C15.9958 17.1926 16.0385 17.1105 16.1065 17.0524C16.3445 16.8172 16.5192 16.5259 16.6145 16.2054C16.6357 15.852 16.5545 15.4999 16.3808 15.1911C16.2465 14.7583 15.9909 14.3729 15.6442 14.0805C15.4654 14.0002 15.2671 13.9733 15.0733 14.003C14.8795 14.0326 14.6985 14.1177 14.552 14.2478C14.2978 14.4668 14.0959 14.74 13.9614 15.0472C13.8269 15.3544 13.7631 15.6878 13.7748 16.0229C13.7756 16.211 13.7995 16.3984 13.8459 16.5807C13.9639 17.0189 14.1453 17.4375 14.3844 17.8233C14.5569 18.1188 14.7451 18.4049 14.9483 18.6804C15.6084 19.5851 16.4383 20.3533 17.3917 20.9423C17.8702 21.2416 18.3815 21.4849 18.9157 21.6675C19.4706 21.9186 20.0833 22.015 20.6886 21.9464C21.0335 21.8943 21.3603 21.7584 21.6403 21.5505C21.9202 21.3427 22.1446 21.0694 22.2939 20.7546C22.3816 20.5645 22.4082 20.3519 22.3701 20.146C22.2787 19.7251 21.7148 19.4766 21.3693 19.2737Z" fill="#D6E1FA"/>
<rect x="1.25" y="1.37" width="33.5" height="33.5" rx="16.75" stroke="#D6E1FA" stroke-width="1.5"/>
</svg>
